<svg xmlns="http://www.w3.org/2000/svg"><style>:root svg:not(:target){display:none}</style><svg viewBox="0 0 15 15" fill="none" id="icon-cart"><path d="M4.5 15a1.5 1.5 0 1 0 0-3 1.5 1.5 0 0 0 0 3Zm8 0a1.5 1.5 0 1 0 0-3 1.5 1.5 0 0 0 0 3Zm2.5-13h-10.93l-.42-2h-3.65v2h2.03l1.99 9h10.98v-2h-5.56l5.56-2.05v-4.95Z" fill="#A6A6A6"></path></svg><svg viewBox="0 0 12 22" fill="none" id="icon-facebook"><path d="M12 4v-4h-4a4 4 0 0 0-4 4v4h-4v4h4v10h4v-10h4v-4h-4v-4h4Z" fill="#fff"></path></svg><svg viewBox="0 0 21 21" fill="none" id="icon-instagram"><path fill-rule="evenodd" clip-rule="evenodd" d="M3 0h15a3 3 0 0 1 3 3v15a3 3 0 0 1-3 3h-15a3 3 0 0 1-3-3v-15a3 3 0 0 1 3-3Zm11 10.5a3.5 3.5 0 1 0-7 0 3.5 3.5 0 0 0 7 0Zm-11 7.5v-9h1.18a6.5 6.5 0 1 0 12.64 0h1.18v9h-15Zm11-11h4v-4h-4v4Z" fill="#fff"></path></svg><svg viewBox="0 0 26 15" fill="none" id="icon-vk"><path d="M16.14 11.51c.95-.3 2.18 2.04 3.48 2.94.98.68 1.73.53 1.73.53l3.47-.05s1.82-.1.96-1.55c-.07-.12-.5-1.07-2.59-3.02-2.17-2.05-1.88-1.71.74-5.25 1.6-2.15 2.24-3.46 2.04-4.02-.2-.54-1.37-.4-1.37-.4l-3.91.02c-.38 0-.7.12-.85.52 0 0-.62 1.66-1.45 3.08-1.74 2.99-2.43 3.15-2.72 2.96-.66-.43-.5-1.74-.5-2.67 0-2.9.44-4.1-.84-4.41a6.6 6.6 0 0 0-1.83-.18c-1.39-.03-2.57 0-3.24.32-.45.23-.79.72-.58.74.26.04.84.16 1.15.59.4.55.4 1.79.4 1.79s.22 3.41-.55 3.83c-.53.3-1.25-.3-2.8-3.01-.8-1.4-1.4-2.92-1.4-2.92s-.1-.29-.32-.45c-.25-.18-.6-.24-.6-.24l-3.71.02s-.56.02-.77.27c-.18.21-.01.66-.01.66s2.9 6.89 6.2 10.35c3.02 3.18 6.46 2.97 6.46 2.97h1.55s.47-.05.7-.31c.23-.24.22-.7.22-.7s-.03-2.1.94-2.41Z" fill="#fff"></path></svg></svg>