<svg viewBox="0 0 454 391" fill="none" xmlns="http://www.w3.org/2000/svg"><path d="M-119.05 389c43.62-.19 124.54-48.54 164.11-143.62 48.35-116.16 52.11-170.36 100.09-226.95 61.14-72.13 93.3 113.19 115.3 170.64 22 57.45 28.13 162.1 139.8 132.81 89.33-23.43 43.06-138.88 8.76-193.67-18.97 46.83-70.14 117.4-123.08 25.02-66.17-115.46-102.24-72.83-123.25-39.24-24.15 48.86-48.63 132.67-72.3 162.67-46.74 59.26-93.3 58.02-112.15 58.02-117-15.3-110.18-266.58-126.23-248" stroke="#fff" stroke-opacity=".6" stroke-width="3"/></svg>